#!OML:ASF X:\für Bonn\!DataBase\2005_08_12_Daniel\c3d\Daniel.ASF
:FULLY-SPECIFIED
:DEGREES
113
root 2.63028 17.6173 17.2473 -5.49399 17.1154 -1.26351
lowerback 7.63394 3.34311 4.81234
upperback -0.139193 4.6817 -5.77891
thorax -3.55067 2.21883 -9.31711
lowerneck 3.57824 -7.0187 -3.91989
upperneck 14.1171 -10.0919 6.09086
head 4.15138 -4.90454 2.21334
rclavicle 1.49089e-016 -3.97569e-014
rhumerus 67.2471 -19.2801 -91.1918
rradius 7.31863
rwrist 55.1436
rhand 1.80814 2.46418
rfingers 7.12502
rthumb 27.3211 -25.5761
lclavicle 1.49089e-016 -3.97569e-014
lhumerus -38.3183 45.8645 54.5966
lradius 15.3963
lwrist -48.0363
lhand -11.1722 -6.4105
lfingers 7.12502
lthumb 14.8546 23.037
rfemur 11.4399 14.904 23.3319
rtibia 12.1234
rfoot -25.2981 -27.0758
rtoes -11.9817
lfemur -2.33811 -19.5153 -17.0824
ltibia 29.5636
lfoot -22.0695 2.17104
ltoes -15.8882
114
root 2.62683 17.6185 17.2422 -5.47982 17.1612 -1.26315
lowerback 7.70358 3.35058 4.84415
upperback -0.142448 4.69573 -5.79669
thorax -3.58645 2.22351 -9.36273
lowerneck 3.65541 -7.02556 -3.91321
upperneck 14.0983 -10.1036 6.11631
head 4.13457 -4.91048 2.22301
rclavicle 1.83876e-014 1.27222e-014
rhumerus 67.2687 -19.3868 -91.3208
rradius 7.32414
rwrist 55.3747
rhand 1.8751 2.32118
rfingers 7.12502
rthumb 27.3851 -25.7089
lclavicle 1.83876e-014 1.27222e-014
lhumerus -38.2977 45.7934 54.6791
lradius 15.463
lwrist -47.9116
lhand -11.1515 -6.3666
lfingers 7.12502
lthumb 14.8745 23.0794
rfemur 11.3908 14.856 23.3203
rtibia 12.1439
rfoot -25.2849 -27.0623
rtoes -11.9615
lfemur -2.39545 -19.4992 -17.0547
ltibia 29.5617
lfoot -22.0219 2.12022
ltoes -15.8851
115
root 2.62384 17.6196 17.2375 -5.46546 17.2029 -1.26268
lowerback 7.7632 3.36191 4.87469
upperback -0.140588 4.71476 -5.8141
thorax -3.61035 2.23146 -9.40644
lowerneck 3.71602 -7.03774 -3.90073
upperneck 14.094 -10.1239 6.15025
head 4.12551 -4.91949 2.23311
rclavicle -2.68359e-014 6.99722e-014
rhumerus 67.2967 -19.4901 -91.4532
rradius 7.34583
rwrist 55.5817
rhand 1.94551 2.20424
rfingers 7.12502
rthumb 27.4525 -25.8152
lclavicle -2.68359e-014 6.99722e-014
lhumerus -38.3292 45.8474 54.6664
lradius 15.5242
lwrist -47.9807
lhand -11.0987 -6.34874
lfingers 7.12502
lthumb 14.9254 23.0935
rfemur 11.3391 14.7773 23.2965
rtibia 12.1624
rfoot -25.2527 -27.0314
rtoes -11.9705
lfemur -2.44465 -19.5327 -17.0381
ltibia 29.5607
lfoot -21.9936 2.10812
ltoes -15.8848
116
root 2.62078 17.6206 17.2336 -5.4497 17.2332 -1.26094
lowerback 7.81373 3.37907 4.90064
upperback -0.137629 4.74104 -5.83091
thorax -3.62695 2.24352 -9.44653
lowerneck 3.75238 -7.05542 -3.86567
upperneck 14.1025 -10.1501 6.16801
head 4.12271 -4.9302 2.23337
rclavicle 5.15473e-014 -2.38542e-014
rhumerus 67.3478 -19.618 -91.5736
rradius 7.3442
rwrist 55.7847
rhand 2.02951 2.17734
rfingers 7.12502
rthumb 27.5328 -25.8294
lclavicle 5.15473e-014 -2.38542e-014
lhumerus -38.3484 45.8585 54.6765
lradius 15.5816
lwrist -48.0082
lhand -11.0846 -6.33012
lfingers 7.12502
lthumb 14.939 23.1111
rfemur 11.2948 14.7581 23.2868
rtibia 12.1842
rfoot -25.2701 -27.0238
rtoes -11.9194
lfemur -2.49234 -19.5206 -17.0174
ltibia 29.5585
lfoot -21.9653 2.07825
ltoes -15.9318
117
root 2.61778 17.6212 17.2288 -5.45512 17.2656 -1.27412
lowerback 7.89844 3.38385 4.94941
upperback -0.14323 4.75347 -5.84893
thorax -3.67252 2.24647 -9.50392
lowerneck 3.79898 -7.06434 -3.82552
upperneck 14.1387 -10.1636 6.16747
head 4.12489 -4.93489 2.22783
rclavicle 8.49804e-015 -3.18055e-015
rhumerus 67.3618 -19.7248 -91.7114
rradius 7.37202
rwrist 56.006
rhand 2.07001 2.19768
rfingers 7.12502
rthumb 27.5715 -25.8028
lclavicle 8.49804e-015 -3.18055e-015
lhumerus -38.4158 45.8816 54.6244
lradius 15.6464
lwrist -48.0693
lhand -11.0367 -6.31606
lfingers 7.12502
lthumb 14.9851 23.1218
rfemur 11.2597 14.7119 23.2925
rtibia 12.2121
rfoot -25.2496 -27.0139
rtoes -11.9167
lfemur -2.51852 -19.5486 -16.9919
ltibia 29.5535
lfoot -21.9394 2.06713
ltoes -15.9315
118
root 2.61532 17.6222 17.2249 -5.43989 17.2969 -1.27342
lowerback 7.9496 3.39764 4.97783
upperback -0.142521 4.77555 -5.86356
thorax -3.69257 2.2561 -9.54305
lowerneck 3.83461 -7.07925 -3.78342
upperneck 14.1623 -10.1847 6.16936
head 4.12544 -4.94309 2.22215
rclavicle 1.04449e-013 -3.97569e-014
rhumerus 67.4224 -19.8516 -91.8266
rradius 7.34843
rwrist 56.2139
rhand 2.00645 2.29782
rfingers 7.12502
rthumb 27.5108 -25.7124
lclavicle 1.04449e-013 -3.97569e-014
lhumerus -38.4765 45.9539 54.5835
lradius 15.6937
lwrist -48.1893
lhand -11.0403 -6.33052
lfingers 7.12502
lthumb 14.9816 23.1076
rfemur 11.2077 14.6381 23.2678
rtibia 12.2345
rfoot -25.2189 -26.9771
rtoes -11.9849
lfemur -2.55881 -19.5586 -16.9737
ltibia 29.5498
lfoot -21.9176 2.04269
ltoes -15.9308
119
root 2.61231 17.6235 17.221 -5.43158 17.3238 -1.27388
lowerback 8.01002 3.40159 5.00204
upperback -0.148426 4.78402 -5.8819
thorax -3.7275 2.25798 -9.58404
lowerneck 3.88455 -7.0875 -3.72061
upperneck 14.1966 -10.195 6.15152
head 4.12434 -4.94587 2.20814
rclavicle -4.05024e-014 1.27222e-014
rhumerus 67.476 -19.934 -91.9736
rradius 7.31767
rwrist 56.4283
rhand 1.88268 2.3996
rfingers 7.12502
rthumb 27.3924 -25.6294
lclavicle -4.05024e-014 1.27222e-014
lhumerus -38.5239 45.9183 54.5624
lradius 15.7561
lwrist -48.225
lhand -11.0432 -6.31417
lfingers 7.12502
lthumb 14.9789 23.1241
rfemur 11.1707 14.6246 23.2688
rtibia 12.2568
rfoot -25.2171 -26.9932
rtoes -11.9881
lfemur -2.59532 -19.5397 -16.9514
ltibia 29.5435
lfoot -21.8896 2.00848
ltoes -15.9777
120
root 2.60972 17.6241 17.2173 -5.43767 17.3524 -1.28759
lowerback 8.06868 3.40868 5.04502
upperback -0.134656 4.79903 -5.89607
thorax -3.7382 2.26467 -9.63055
lowerneck 3.87988 -7.10451 -3.67964
upperneck 14.2534 -10.221 6.15917
head 4.14217 -4.95489 2.20204
rclavicle -4.5708e-014 -4.29375e-014
rhumerus 67.5201 -20.0544 -92.1093
rradius 7.37543
rwrist 56.6449
rhand 1.76721 2.50037
rfingers 7.12502
rthumb 27.2819 -25.546
lclavicle -4.5708e-014 -4.29375e-014
lhumerus -38.5162 45.9211 54.5755
lradius 15.7902
lwrist -48.2482
lhand -11.0234 -6.32036
lfingers 7.12502
lthumb 14.998 23.1165
rfemur 11.139 14.6014 23.2803
rtibia 12.2823
rfoot -25.2136 -27.0006
rtoes -11.9851
lfemur -2.61852 -19.5479 -16.9228
ltibia 29.5378
lfoot -21.8656 1.98211
ltoes -15.9775
121
root 2.60722 17.6249 17.2146 -5.42986 17.3673 -1.28575
lowerback 8.10684 3.41438 5.0543
upperback -0.12958 4.80841 -5.90375
thorax -3.75097 2.26875 -9.64845
lowerneck 3.90546 -7.10634 -3.6277
upperneck 14.2986 -10.2232 6.14379
head 4.14858 -4.95339 2.18961
rclavicle 2.16675e-014 2.54444e-014
rhumerus 67.563 -20.1387 -92.2426
rradius 7.40738
rwrist 56.8677
rhand 1.56911 2.60792
rfingers 7.12502
rthumb 27.0924 -25.4681
lclavicle 2.16675e-014 2.54444e-014
lhumerus -38.5696 45.917 54.5601
lradius 15.8474
lwrist -48.2673
lhand -11.0046 -6.32264
lfingers 7.12502
lthumb 15.0161 23.1129
rfemur 11.1063 14.5569 23.262
rtibia 12.2967
rfoot -25.2078 -26.9592
rtoes -11.9469
lfemur -2.64565 -19.5528 -16.9105
ltibia 29.5358
lfoot -21.8482 1.98188
ltoes -15.9838
122
root 2.60469 17.6256 17.2116 -5.41441 17.387 -1.28496
lowerback 8.15168 3.42036 5.07342
upperback -0.132933 4.81884 -5.92203
thorax -3.77445 2.27233 -9.68505
lowerneck 3.89902 -7.11444 -3.57756
upperneck 14.3891 -10.2375 6.14067
head 4.17532 -4.95589 2.17871
rclavicle -4.97583e-014 1.27222e-014
rhumerus 67.6095 -20.2496 -92.3807
rradius 7.44076
rwrist 57.1257
rhand 1.37544 2.72258
rfingers 7.12502
rthumb 26.9071 -25.3822
lclavicle -4.97583e-014 1.27222e-014
lhumerus -38.6154 45.9218 54.5202
lradius 15.875
lwrist -48.3248
lhand -11.004 -6.34857
lfingers 7.12502
lthumb 15.0167 23.0869
rfemur 11.0742 14.5463 23.2598
rtibia 12.303
rfoot -25.1904 -26.9727
rtoes -11.8806
lfemur -2.68603 -19.535 -16.8908
ltibia 29.537
lfoot -21.8294 1.95701
ltoes -16.0306
123
root 2.60224 17.6266 17.2092 -5.40332 17.4037 -1.2973
lowerback 8.1815 3.42375 5.09453
upperback -0.135009 4.82602 -5.92707
thorax -3.78977 2.27471 -9.70647
lowerneck 3.93533 -7.12116 -3.52756
upperneck 14.4376 -10.2468 6.12681
head 4.18157 -4.95803 2.16717
rclavicle -4.31798e-014 3.02153e-014
rhumerus 67.6611 -20.3464 -92.5078
rradius 7.47983
rwrist 57.4359
rhand 1.17567 2.84763
rfingers 7.12502
rthumb 26.716 -25.2864
lclavicle -4.31798e-014 3.02153e-014
lhumerus -38.6793 45.8991 54.4986
lradius 15.9215
lwrist -48.3081
lhand -10.991 -6.37527
lfingers 7.12502
lthumb 15.0292 23.0593
rfemur 11.0452 14.5436 23.2743
rtibia 12.3063
rfoot -25.1863 -26.9906
rtoes -11.8765
lfemur -2.7205 -19.5374 -16.8585
ltibia 29.541
lfoot -21.8206 1.9363
ltoes -16.0277
124
root 2.60016 17.6273 17.2067 -5.39498 17.425 -1.29817
lowerback 8.20625 3.42233 5.10029
upperback -0.12 4.82563 -5.92611
thorax -3.7875 2.27503 -9.71011
lowerneck 3.89263 -7.12827 -3.50367
upperneck 14.5433 -10.2575 6.09879
head 4.21883 -4.96008 2.15122
rclavicle 4.63168e-014 -1.59028e-014
rhumerus 67.7394 -20.4341 -92.629
rradius 7.5332
rwrist 57.7705
rhand 0.983238 2.94777
rfingers 7.12502
rthumb 26.5318 -25.2143
lclavicle 4.63168e-014 -1.59028e-014
lhumerus -38.7253 45.9122 54.4948
lradius 15.954
lwrist -48.3467
lhand -10.9697 -6.38369
lfingers 7.12502
lthumb 15.0496 23.0493
rfemur 11.0242 14.5335 23.2751
rtibia 12.307
rfoot -25.1801 -27.0042
rtoes -11.8731
lfemur -2.75773 -19.5161 -16.8357
ltibia 29.547
lfoot -21.8053 1.8904
ltoes -16.0275
125
root 2.5978 17.6278 17.204 -5.39309 17.4375 -1.31058
lowerback 8.25166 3.41948 5.11899
upperback -0.124131 4.82455 -5.93094
thorax -3.81563 2.27256 -9.73084
lowerneck 3.90253 -7.12777 -3.45132
upperneck 14.6228 -10.2571 6.07374
head 4.23764 -4.95663 2.13474
rclavicle -8.4353e-014 1.43125e-014
rhumerus 67.7859 -20.5321 -92.7581
rradius 7.5881
rwrist 58.1553
rhand 0.790113 3.087
rfingers 7.12502
rthumb 26.3469 -25.1028
lclavicle -8.4353e-014 1.43125e-014
lhumerus -38.8208 45.9457 54.4064
lradius 15.9516
lwrist -48.4329
lhand -10.9541 -6.42579
lfingers 7.12502
lthumb 15.0647 23.0061
rfemur 11.0103 14.5429 23.2907
rtibia 12.3027
rfoot -25.195 -27.0127
rtoes -11.8201
lfemur -2.78887 -19.5013 -16.8079
ltibia 29.5553
lfoot -21.7921 1.87363
ltoes -16.0744
126
root 2.59563 17.6278 17.2017 -5.38451 17.4437 -1.30885
lowerback 8.28041 3.4194 5.11464
upperback -0.120892 4.82476 -5.93221
thorax -3.82854 2.27219 -9.73222
lowerneck 3.8872 -7.1335 -3.41978
upperneck 14.721 -10.2672 6.05766
head 4.26833 -4.95818 2.12249
rclavicle -6.71085e-014 -1.27222e-014
rhumerus 67.8513 -20.6346 -92.8761
rradius 7.64814
rwrist 58.6007
rhand 0.638276 3.2451
rfingers 7.12502
rthumb 26.2016 -24.9664
lclavicle -6.71085e-014 -1.27222e-014
lhumerus -38.916 45.9955 54.3279
lradius 15.9436
lwrist -48.5247
lhand -10.967 -6.45414
lfingers 7.12502
lthumb 15.0522 22.9787
rfemur 10.9841 14.5084 23.2782
rtibia 12.3061
rfoot -25.1709 -27.0026
rtoes -11.8399
lfemur -2.8193 -19.4743 -16.7898
ltibia 29.5619
lfoot -21.7706 1.83684
ltoes -16.0243
127
root 2.59391 17.6283 17.1996 -5.38094 17.4429 -1.32045
lowerback 8.2995 3.42018 5.13397
upperback -0.109285 4.82834 -5.935
thorax -3.82445 2.27423 -9.74795
lowerneck 3.87204 -7.13621 -3.40643
upperneck 14.8122 -10.2758 6.06525
head 4.29881 -4.95907 2.12042
rclavicle 1.02172e-013 -7.95139e-015
rhumerus 67.9322 -20.7473 -93.0012
rradius 7.71189
rwrist 59.0983
rhand 0.452934 3.39386
rfingers 7.12502
rthumb 26.0241 -24.8438
lclavicle 1.02172e-013 -7.95139e-015
lhumerus -38.9613 46.0038 54.2903
lradius 15.9317
lwrist -48.5606
lhand -10.9565 -6.49378
lfingers 7.12502
lthumb 15.0624 22.9383
rfemur 10.9613 14.4999 23.2874
rtibia 12.3126
rfoot -25.1573 -26.9993
rtoes -11.843
lfemur -2.84451 -19.446 -16.7601
ltibia 29.5679
lfoot -21.7627 1.80628
ltoes -16.0617
